<svg xmlns="http://www.w3.org/2000/svg" viewBox="0 0 1500 1500">
  <g fill="#f48a3f">
    <path d="M1011.2,1113.3c32-28.7,52.1-63.6,55.1-95.9,5.8-63.3,5.8-136.1,0-222.5-2.7-40.3-45.5-95.3-45.9-95.8h0c-.7-1-71-94.7-106.5-136.6-1.5-1.8-2.9-3.6-4.3-5.3-6.8-8.5-12.6-15.8-23-17-12.9-1.5-44.4-1.5-58,0-9.9,4.4-16.4,15-18.7,19.4v.2c-3.6,6-18.7,43-.7,63.4,19.6,22.1,33.2,32.5,33.3,32.6l.3.3c1.6,1.4,38.5,33.8,52.8,49.7,3.8,4.2,8.5,8.7,13.4,13.5,19.7,19,46.7,45.1,54.9,88.8v.6c4.9,62.7,5,124.7.3,179.4-1.5,17.4-11.2,36-26.8,51.2-15.8,15.5-34.8,24.3-52,24.3h-456.1v92.6h491.4c26.3,0,60.9-16.4,90.4-42.8Z"/>
    <path d="M1066.1,442.4v-96.9h0s-.5,0-.5,0c-45.6,2-92.8.8-138.4-.2-48.9-1.2-99.4-2.4-147.9.2-38.6,2.1-80,20.1-113.8,49.3-35.4,30.8-56.7,68.9-60,107.5-3.3,38.9-2.7,105.6-.1,141.5,4.2,24.4,12.7,49.3,24.7,71.9,9.8,18.4,21.5,34.6,32.1,44.4,9.8,9,19.5,18.4,28.9,27.4,24.2,23.3,49.3,47.5,76.8,67.2l1.2.9.6,1.4c2,4.5,1.3,9.8-1.9,14.8-3.6,5.5-10.8,11.1-17.6,11.1h-164v82.2h278.3c.2-4.5.4-8.9.7-13.3.4-7.3.8-14.9.8-22.1,0-4.3,0-8.9,0-13.7,0-21.7,0-46.4-1.5-64.7-1-11.5-6.3-16.3-15-24.4l-1.3-1.2c-7-6.5-14.7-12.5-22.9-18.8-9-7-18.3-14.2-26.7-22.3-30.7-29.6-85-92.6-94-141.2h0c-.5-3.5-1.2-6.9-1.9-10.5-4.3-22.1-9.6-49.6,1.6-108.2,3.4-22.7,13.5-43.5,28.3-58.5,15.1-15.3,34.1-23.7,53.6-23.7h279.7Z"/>
    <polygon points="524.5 344.1 429.4 344 429.3 344 429.3 965.1 524.5 965.1 524.5 344.1"/>
  </g>
</svg>
