<?xml version="1.0" encoding="UTF-8"?>
<svg id="Camada_1" xmlns="http://www.w3.org/2000/svg" viewBox="0 0 600 120">
  <g fill="#040405">
    <path d="M147.7,27.1c-1.1,6.5-2.4,14.1-3.7,21.7-1.2,6.7-2.4,13.3-3.7,19.9-1.9,10.3-7.3,17-15.7,20.2-5.5,2.1-11.2,3.5-17.1,2.4-5-.9-8.2-5.2-8.4-11.1-.2-7.2,1.6-14.1,2.8-21.1,1.4-8.7,3-17.3,4.6-25.9,2.4-13.3,8.2-19.6,19.7-21.6,4.6-.8,9.1-.9,13.6.6,6.1,2.1,8.6,6.5,8,15.1ZM116.1,70.9c0,2.1-.4,3.9,1.2,4.7,1.6.8,3.2.4,4.6-1.1,1.4-1.5,1.9-3.6,2.3-5.7,1.8-10.1,3.6-20.2,5.4-30.3.6-3.2,1.2-6.4,1.6-9.6.3-2.7-.9-3.9-3.2-3.6-2.3.3-3.9,2.1-4.6,5.5-1,5.1-1.9,10.2-2.8,15.3-1.5,8.5-3.1,16.9-4.5,24.9Z"/>
    <path d="M257.5,70.2c2.1,1.4,3.9.6,5.7,0,1.4-.5,1.7-.4,1.5,1.5-1.2,8-4.7,11.5-11.4,11.1-2.7-.2-5-1.4-6-4.5-.5-1.5-1.2-1.6-2.4-1.4-2.8.4-5.5.5-8.3-.2-6.6-1.6-9.8-6.9-8.5-14.7,1.8-11,4.2-21.9,6.2-32.9.7-3.8,1.4-7.6,3.1-11,1.9-3.9,4.5-6.6,8-8.3,6.7-3.1,13.7-3.6,20.6-1.6,6.1,1.8,8.5,6.9,7.2,14.2-2.3,11.9-4.5,23.8-6.9,35.7-1.4,6.7-3.4,9.4-8.7,12.3ZM243.8,58.7c0,2.1-.3,4.2,1.9,5.1,1.6.6,3.8-.9,4.7-3.2.3-.9.6-1.8.8-2.8.6-2.9,1.1-5.9,1.7-8.8,1.6-8.1,3.2-16.2,4.7-24.3.3-1.8.5-3.7-1.2-4.5-1.8-.8-3.4-.1-4.7,1.6-.9,1.2-1.2,2.7-1.4,4.1-.2,1-.3,2.1-.5,3.1-1.9,9.9-3.9,19.8-5.8,29.7Z"/>
    <path d="M59.5,94.9c1.5-8.7,3.1-18,4.8-27.2,2.9-16.7,5.9-33.4,8.8-50.1.3-1.9.9-2.7,2.6-2.8,9.4-.4,18.9-.9,28.3-1.4,1.6,0,2.2.4,1.8,2.4-.7,3.5-1.4,7.1-1.9,10.6-.3,1.8-1.1,2.5-2.6,2.6-3.7.2-7.5.6-11.2.7-1.5,0-2.2.7-2.5,2.4-.7,3.8-1.4,7.6-2.1,11.4-.3,1.8.3,2.4,1.8,2.3,3-.3,6-.5,9-.7,2.3-.2,2.8.3,2.3,2.9-.6,3.4-1.2,6.7-1.8,10.1-.3,1.5-.9,2.3-2.3,2.4-3.1.3-6.3.7-9.4.9-1.8.1-2.7.9-3.1,3-.6,3.9-1.3,7.8-2.1,11.7-.4,2.2,0,3,2,2.7,3.8-.6,7.6-1,11.4-1.5,2.5-.3,2.7,0,2.2,3-.6,3.5-1.3,6.9-1.8,10.4-.3,1.7-1,2.6-2.5,2.8-9.8,1.5-19.5,3.2-29.3,4.8-2.7.4-2.7.3-2.3-3.3Z"/>
    <path d="M154.5,85.7c-.7,0-1.4,0-2-.1-7-.9-10.6-6.3-9.4-14.6.3-1.9.8-3.8.9-5.7.2-3.2,1.5-4.4,4.1-4.6,3.4-.2,6.9-.7,10.3-1.2,1.9-.3,2.3.6,1.9,2.5-.4,1.9-.8,3.8-.8,5.7,0,3,1.7,4.4,4.2,3.4,4.1-1.7,5.5-9.7,2.4-14-1.1-1.5-2.6-2.6-4-3.8-2.3-1.8-4.6-3.5-6.8-5.5-4.1-3.5-6.1-8.2-5.5-14.3,1.4-15,8-22.8,22.1-24,3.5-.3,6.9,0,10.2,1.1,6,2,8.5,6.7,7.3,13.9-.3,1.8-.6,3.6-.9,5.5-.2,1.5-.8,2.3-2.2,2.4-3.5.2-7,.6-10.6.8-2.3.1-2.6-.3-2.1-3,.1-.8.3-1.6.4-2.3.2-1.9.4-3.8-1.6-4.7-1.6-.7-3.9.3-4.9,2.2-2.2,3.8-1.5,8.9,1.7,11.5,2.5,2.1,5.2,4,7.8,6.1,7.5,6.2,8.8,10.9,6.6,21.4-2,9.7-7.1,15.8-15.1,18.7-4.6,1.7-9.2,2.6-14,2.4Z"/>
    <path d="M225.1,72.7c-.4,5.8,1,4.7-5.8,5.3-2.6.2-5.2.4-7.9.7-1.7.2-2.1-.6-2-2.4.2-2.7.3-5.5.5-8.2.1-1.6-.3-2.4-1.7-2.1-.1,0-.3,0-.4,0-7,.3-6.9.4-9.3,8.1-2.2,7.1-.6,5.7-6.8,6.4-2.8.3-5.5.6-8.3.9-2.5.2-2.8-.2-1.9-3,5.1-15.3,10.2-30.5,15.4-45.8,2.3-6.8,4.6-13.7,6.8-20.6.6-1.8,1.4-2.7,3.1-2.7,6.1-.2,12.1-.4,18.2-.7,1.7,0,2.2.8,2.1,2.7-.3,9.3-.6,18.7-.9,28-.3,10.6-.7,21.1-1.1,33.3ZM212.8,26.2c0,0-.2,0-.2,0-2.1,7.2-4.3,14.5-6.4,21.7-1.6,5.5-1.6,5.5,3.3,4.9,1.2-.2,1.8-.7,1.8-2.1.5-8.1,1-16.3,1.5-24.4Z"/>
    <path d="M280.8,74c-1.3-.1-3.7-.3-6-1.3-3.6-1.5-5.8-5.6-5.5-10.4.3-6.4,2-12.5,3.2-18.7,2-10.8,4.2-21.5,6.3-32.3.5-2.5,1.2-3.8,3.7-3.8,3.3,0,6.6-.3,9.9-.6,1.9-.2,2.6.6,2.1,2.9-1.4,6.4-2.7,12.9-4,19.3-1.7,8.5-3.4,17-5,25.6-.1.5-.2,1-.2,1.6,0,1.6-.4,3.4,1.2,4,1.7.7,3.1,0,4.3-1.6,1-1.3,1.3-3,1.6-4.6,2.9-14.6,5.9-29.3,8.7-43.9.4-2.3,1.2-3.5,3.4-3.4,3.4.2,6.7,0,10.1-.2,1.5,0,2,.7,1.7,2.4-1.6,7.9-3.2,15.8-4.8,23.7-1.4,7.1-2.9,14.1-4.2,21.2-2,10.9-7.7,17.2-17,18.9-2.8.5-5.5.9-9.4,1Z"/>
    <path d="M54.9,17.7c-1.5,8-3,16-4.5,24.1-2.3,12.8-4.7,25.6-7,38.3-.1.6,0,1.2-.2,1.8-.4,1.6.1,1.9,1.5,1.7,3.9-.6,7.8-1,11.6-1.6,1.9-.3,2.4.5,2,2.6-.8,4-1.6,8.1-2.2,12.2-.3,1.7-1,2.6-2.5,2.8-9.5,1.7-19,3.5-28.5,5.1-3.4.6-3.5.3-2.8-3.9,1.7-9.6,3.4-19.2,5.2-28.8,3.1-17.6,6.3-35.3,9.4-52.9.4-2.2,1.2-2.8,3-2.9,4.5-.1,9-.4,13.5-.8,1.4,0,2,.4,1.6,2.1Z"/>
    <path d="M425.9,8.1c-2.4-.5-4.7.6-7.1-1.1,1.6-.1,2.8-.3,3.9-.3,6.8.4,13.6-1.5,20.4.3,1.4.4,2.7.9,4,1.6,4.1,2.4,5.9,6,4.9,11.4-2.1,10.8-4.4,21.5-6.8,32.2-1,4.4-3.4,7.9-6.8,9.9-7.6,4.3-15.4,5.5-23.4,2.3-4.4-1.7-6.4-6.2-5.5-11.7,1.8-10.6,4.3-21,6.4-31.5,1.3-6.4,4.6-10.6,10-13.1ZM424.6,49.8c-.4,3.8.9,5.1,3.5,4.5,1.9-.4,2.8-2,3.3-4,2-9.5,4-19,6-28.5.3-1.4.5-2.9-.7-3.9-1.2-.9-2.6-.7-3.9,0-1.5.8-2,2.3-2.3,4-.6,3-1.2,6-1.9,9-1.4,6.5-2.8,13-4,18.8Z"/>
    <path d="M562.7,38.2c-2.9,7-5.9,13.9-8.8,20.9-1.7,4.1-1.7,4.1-5.6,4-.3,0-.6,0-.9,0-3.5-.1-3.4-.1-3.3-4.1.2-7.5.4-15,.3-22.5-1.5,6.7-3,13.5-4.4,20.2-1.3,6-1.2,6.2-6.4,6.3-8,.1-6.7.6-5-7.2,2.6-11.8,5.3-23.6,7.9-35.4.9-4,.8-4.2,4.1-3.8,3.3.4,6.7.3,10.1.3,2,0,3,.7,2.9,3.3-.4,5.9-.5,11.8-.8,17.7,0,.8-.1,1.7.3,2.7,1.8-4.2,3.7-8.5,5.5-12.7,1.2-2.7,2.4-5.4,3.5-8.1.6-1.6,1.6-2.2,3-2.1,3.3.3,6.6.4,9.9.6,3.3.2,3.4.2,2.6,3.9-1.9,8.7-3.8,17.5-5.7,26.2-.9,4.1-1.8,8.2-2.6,12.4-.4,1.8-1.1,2.5-2.7,2.4-2.2-.1-4.4-.1-6.5,0-2.1.1-2.6-.8-2-3.1,1.7-6.8,3.2-13.7,4.7-20.5,0-.4.1-.8.2-1.3,0,0-.2,0-.3-.1Z"/>
    <path d="M344.6,6.5c5.8.1,5.9.2,4.7,5.5-1.9,8.6-.1,6.7-7.9,7.2-2,.1-4.1.2-6.1.1-1.1,0-1.8.4-2.1,1.8-.5,2.6-1.1,5.1-1.6,7.7-.3,1.7.3,2.5,1.7,2.5,2.8,0,5.5,0,8.3-.2,1.4,0,1.9.6,1.5,2.2-.6,2.7-1.2,5.5-1.8,8.2-.3,1.5-1,2-2.2,2.1-2.8,0-5.7.3-8.5.3-1.5,0-2.2.5-2.5,2.3-.5,2.7-1.1,5.3-1.7,8-.5,1.9,0,2.8,1.8,2.7,3.2-.2,6.4-.4,9.7-.5,2.5,0,2.6.2,2,3-.6,2.6-1.1,5.1-1.6,7.7-.3,1.4-.9,2.1-2.2,2.2-8.5.5-17.1,1.1-25.6,1.7-2.1.2-2.4-.6-1.9-2.9,4-19.4,7.9-38.8,11.8-58.3.5-2.4,1.3-3.3,3.5-3.2,7.3.1,14.5,0,20.7-.1Z"/>
    <path d="M519.4,14.5c2.3.2,4.6.6,6.8,1.3,5,1.6,6.8,5.4,5.5,11.4-1.4,6.6-2.9,13.2-4.4,19.8-.6,2.7-1.1,5.3-2,7.9-1.2,3.3-3.1,5.7-6,6.9-6,2.5-12.1,3.1-18.2,1.4-4.9-1.4-6.6-4.3-5.8-10.2,1.1-8.4,3.6-16.4,5.1-24.7,1.5-8.2,5.8-12.3,12.6-13.4,2.1-.3,4.2-.6,6.3-.4ZM519.3,27.1c0-1.8-.5-2.6-1.7-2.9-1.9-.5-3.6.7-4.2,3-1.8,7.9-3.6,15.9-5.3,23.8-.6,2.7.9,4.2,3.2,3.5,1.5-.5,2.4-1.8,2.7-3.5.8-3.5,1.6-7,2.4-10.5,1-4.5,2-9.1,2.9-13.3Z"/>
    <path d="M354.6,18.9c-.2,0-1.1,0-2,0-2.5.2-2.9-.3-2.3-3.1.5-2.5,1.1-5,1.5-7.5.3-1.5.9-2,2.2-2.1,9.2,0,18.4-.2,27.7-.3,1.9,0,2.8.7,2.1,3.2-.6,2.4-1,4.8-1.4,7.2-.3,1.6-1,2.2-2.4,2.2-1.4,0-2.9,0-4.3-.1-1.5-.1-2.2.7-2.5,2.3-2.9,14-5.8,28-8.6,42-1,4.9-.9,4.9-5.1,5-2.7,0-5.4.3-8.1.5-2.5.1-2.8-.3-2.2-3.1,2.9-14.1,5.8-28.2,8.7-42.3q.8-3.9-3.3-4.1Z"/>
    <path d="M490.7,31.9c0,0-.1,0-.2,0q-4.6-.2-3.9-5.4c.2-1.3.4-2.8-1-3.3-1.5-.5-3-.3-4.1,1.3-.5.8-.8,1.7-1,2.7-1.6,7.4-3.3,14.7-4.8,22.1-.4,1.8-1,3.8,1.1,4.7,1.8.8,3.8-.6,4.6-3.1,0-.2.1-.5.2-.8,1.5-5.7,1.5-5.6,6.4-5.5,1.6,0,3.1,0,4.7,0,1.4,0,2.1.6,1.6,2.4-.6,2.2-1,4.5-1.6,6.6-1.2,4.1-3.5,7.1-7,8.6-6,2.5-12.2,3.3-18.3,1.1-4.3-1.5-6.3-5-5.3-10.3,1.9-10,4-20,6.7-29.7,1.2-4.5,4.1-7.5,8-8.7,5.9-1.9,11.7-2.1,17.5.2,3.9,1.6,5.5,5.2,4.5,9.9,0,.3-.2.7-.2,1q-1.3,6.2-6.8,6c-.4,0-.7,0-1.1,0h0Z"/>
    <path d="M387.1,18.7q-4.3,0-3.2-4.9c0,0,0-.2,0-.3,1.7-7.4,1.7-7.4,8.3-7.3,7.6.1,15.1.2,22.7.2,2.1,0,2.7.9,2,3.2-.4,1.4-.8,2.9-1.1,4.3-1,4.7-1,4.7-5.1,4.6-4.5,0-4.5,0-5.7,5.1-2.9,13.3-5.8,26.6-8.6,39.9-.4,1.7-.9,2.7-2.5,2.7-3.4.1-6.7.4-10.1.5-2.4,0-2.7-.3-2.1-3,2.9-13.6,5.8-27.1,8.6-40.7.1-.5.2-1,.3-1.5.6-2.2-.2-2.9-1.9-2.7-.6,0-1.2,0-1.8,0Z"/>
    <path d="M455.4,53.4c5-.2,4.2,0,3.2,5-1.2,5.6-1.2,5.6-6.1,6-1.8.1-3.6,0-5.4,0-1.2,0-1.6-.6-1.3-2,0,0,0-.2,0-.3,2.3-10.4.1-8.3,9.5-8.8Z"/>
    <path d="M472.5,74.9c-6.1.2-12.1.5-18.2.7-13.6.3-27.1.5-40.7,1-15.4.5-30.9,1-46.3,1.8-14.3.7-28.6,1.4-43,2.4-15.7,1-31.3,2.1-47,3.3-17.5,1.4-35.1,2.9-52.6,4.5-18.5,1.7-37,3.6-55.4,5.9-8.2,1-16.5,1.4-24.6,3.1-21.3,4.5-42.4,9.7-63.5,15.1-.8.2-1.8,0-2.9,1.4,38.8-6.3,77.3-12.4,115.9-16-17.4,3.9-34.9,7.8-52.6,11.8.8.9,1.3.7,1.8.6,16.1-2.4,32.3-3.8,48.4-5.7,2.4-.3,4.5-.4,6.3.5h0s4.3-.5,4.3-.5c-.1-.2-.3-.5-.4-.7,1.3-.8,2.1-.6,2.7.4l6.4-.8c-.1-.3-.3-.6-.5-1,4-.5,7.7-1,11.3-1.5l117.1-12.9c.3,0,.6-.1,1-.1.9,0,1.9,0,2.8-.2l2.8-.3c.7,0,1.4-.2,2.1-.2.6,0,1.3-.4,1.8-.2l15.7-1.4c13.9-1.3,27.8-2.9,41.8-4.1,22.5-1.9,44.9-4.4,67.4-5.7.4,0,.9.1,1-.7-.9-.6-1.9-.3-2.8-.3Z"/>
  </g>
</svg>
