<svg xmlns="http://www.w3.org/2000/svg" viewBox="0 0 600 120">
  <g fill="#000">
    <path d="M147.7,27.1c-1.1,6.5-2.4,14.1-3.7,21.7-1.2,6.7-2.4,13.3-3.7,19.9-1.9,10.3-7.3,17-15.7,20.2-5.5,2.1-11.2,3.5-17.1,2.4-5-.9-8.2-5.2-8.4-11.1-.2-7.2,1.6-14.1,2.8-21.1,1.4-8.7,3-17.3,4.6-25.9,2.4-13.3,8.2-19.6,19.7-21.6,4.6-.8,9.1-.9,13.6.6,6.1,2.1,8.6,6.5,8,15.1Z"/>
    <path d="M257.5,70.2c2.1,1.4,3.9.6,5.7,0,1.4-.5,1.7-.4,1.5,1.5-1.2,8-4.7,11.5-11.4,11.1-2.7-.2-5-1.4-6-4.5-.5-1.5-1.2-1.6-2.4-1.4-2.8.4-5.5.5-8.3-.2-6.6-1.6-9.8-6.9-8.5-14.7,1.8-11,4.2-21.9,6.2-32.9.7-3.8,1.4-7.6,3.1-11,1.9-3.9,4.5-6.6,8-8.3,6.7-3.1,13.7-3.6,20.6-1.6,6.1,1.8,8.5,6.9,7.2,14.2-2.3,11.9-4.5,23.8-6.9,35.7-1.4,6.7-3.4,9.4-8.7,12.3Z"/>
    <path d="M472.5,74.9c-6.1.2-12.1.5-18.2.7-13.6.3-27.1.5-40.7,1-15.4.5-30.9,1-46.3,1.8-14.3.7-28.6,1.4-43,2.4-15.7,1-31.3,2.1-47,3.3-17.5,1.4-35.1,2.9-52.6,4.5-18.5,1.7-37,3.6-55.4,5.9-8.2,1-16.5,1.4-24.6,3.1-21.3,4.5-42.4,9.7-63.5,15.1-.8.2-1.8,0-2.9,1.4,38.8-6.3,77.3-12.4,115.9-16-17.4,3.9-34.9,7.8-52.6,11.8.8.9,1.3.7,1.8.6,16.1-2.4,32.3-3.8,48.4-5.7,2.4-.3,4.5-.4,6.3.5h0s4.3-.5,4.3-.5c-.1-.2-.3-.5-.4-.7,1.3-.8,2.1-.6,2.7.4l6.4-.8c-.1-.3-.3-.6-.5-1,4-.5,7.7-1,11.3-1.5l117.1-12.9c.3,0,.6-.1,1-.1.9,0,1.9,0,2.8-.2l2.8-.3c.7,0,1.4-.2,2.1-.2.6,0,1.3-.4,1.8-.2l15.7-1.4c13.9-1.3,27.8-2.9,41.8-4.1,22.5-1.9,44.9-4.4,67.4-5.7.4,0,.9.1,1-.7-.9-.6-1.9-.3-2.8-.3Z"/>
  </g>
</svg>
