<?xml version="1.0" encoding="UTF-8"?>
<svg id="Camada_2" data-name="Camada 2" xmlns="http://www.w3.org/2000/svg" viewBox="0 0 966 966">
  <defs>
    <style>
      .cls-1 {
        fill: #101010;
      }

      .cls-2 {
        fill: #67d475;
      }
    </style>
  </defs>
  <g id="Camada_1-2" data-name="Camada 1">
    <g id="JEu4Pu">
      <g>
        <path class="cls-1" d="M966,0v966H0V0h966ZM575.63,579.63c8.17-9.02,13.25-20.96,14.4-33.1,6.63-69.88-5.06-150.11,0-221.07.55-14.09-17.62-6.65-26.04-4.97-57.36,11.42-114.31,27.85-171.06,41.94-2.88,2.78-3.5,6.26-3.97,10.03-6.65,53.3,5.43,119.91-.4,174.6-3.31,16.18-28.19,13.74-41.53,18.47-56.51,20-48.24,92.63,13.18,80.18,22.5-4.56,46.34-25.64,48.83-49.17,4.96-46.89-4.65-102.87-.06-150.06.85-8.71,2.9-15.01,11-19,13.82-6.8,116.01-31.75,132.77-33.22,9.57-.84,14.59,1.29,16.16,11.34,1.69,10.78,1,92.47-2.13,99.68-5.71,13.15-23.78,10-35.74,13.26-29.85,8.13-60.22,46.37-31.49,72.42,21.13,19.16,58.76,7.78,76.09-11.33Z"/>
        <path class="cls-2" d="M575.63,579.63c-17.33,19.11-54.96,30.49-76.09,11.33-28.72-26.05,1.64-64.29,31.49-72.42,11.96-3.26,30.03-.11,35.74-13.26,3.13-7.22,3.81-88.9,2.13-99.68-1.57-10.05-6.59-12.18-16.16-11.34-16.77,1.47-118.95,26.42-132.77,33.22-8.1,3.98-10.15,10.29-11,19-4.59,47.2,5.02,103.17.06,150.06-2.49,23.53-26.33,44.61-48.83,49.17-61.42,12.45-69.69-60.18-13.18-80.18,13.34-4.72,38.23-2.29,41.53-18.47,5.83-54.69-6.25-121.3.4-174.6.47-3.77,1.09-7.25,3.97-10.03,56.75-14.09,113.7-30.52,171.06-41.94,8.42-1.68,26.6-9.12,26.04,4.97-5.06,70.95,6.62,151.19,0,221.07-1.15,12.14-6.23,24.08-14.4,33.1Z"/>
      </g>
    </g>
  </g>
</svg>