<?xml version="1.0" encoding="UTF-8"?>
<svg id="Camada_2" data-name="Camada 2" xmlns="http://www.w3.org/2000/svg" viewBox="0 0 283.1 330.1">
  <defs>
    <style>
      .cls-1 {
        fill: #67d475;
      }
    </style>
  </defs>
  <g id="Camada_1-2" data-name="Camada 1">
    <g id="JEu4Pu">
      <path class="cls-1" d="M266.61,262.6c-17.33,19.11-54.96,30.49-76.09,11.33-28.72-26.05,1.64-64.29,31.49-72.42,11.96-3.26,30.03-.11,35.74-13.26,3.13-7.22,3.81-88.9,2.13-99.68-1.57-10.05-6.59-12.18-16.16-11.34-16.77,1.47-118.95,26.42-132.77,33.22-8.1,3.98-10.15,10.29-11,19-4.59,47.2,5.02,103.17.06,150.06-2.49,23.53-26.33,44.61-48.83,49.17-61.42,12.45-69.69-60.18-13.18-80.18,13.34-4.72,38.23-2.29,41.53-18.47,5.83-54.69-6.25-121.3.4-174.6.47-3.77,1.09-7.25,3.97-10.03C140.65,31.31,197.61,14.88,254.97,3.46c8.42-1.68,26.6-9.12,26.04,4.97-5.06,70.95,6.62,151.19,0,221.07-1.15,12.14-6.23,24.08-14.4,33.1Z"/>
    </g>
  </g>
</svg>
