<svg xmlns="http://www.w3.org/2000/svg" viewBox="0 0 512 512" fill="none">
  <rect width="512" height="512" rx="120" fill="#101113"/>
  <defs>
    <linearGradient id="g1" x1="84" y1="72" x2="421" y2="458" gradientUnits="userSpaceOnUse">
      <stop stop-color="#48E16E"/>
      <stop offset="1" stop-color="#159E46"/>
    </linearGradient>
  </defs>
  <path d="M342.061 97.24c10.035-4.79 21.646 2.521 21.646 13.64v181.908c0 44.973-36.365 81.429-81.214 81.429-44.85 0-81.214-36.456-81.214-81.429 0-44.972 36.364-81.428 81.214-81.428 16.231 0 31.35 4.77 44.067 12.989V167.14l-98.975 47.236c-10.035 4.79-21.645-2.52-21.645-13.64V145.46c0-5.419 3.06-10.373 7.903-12.684l128.218-61.536Z" fill="url(#g1)"/>
  <path d="M148.293 315.75c0-26.508 21.438-47.998 47.88-47.998 26.443 0 47.881 21.49 47.881 47.999 0 26.507-21.438 47.998-47.88 47.998-26.443 0-47.881-21.491-47.881-47.998Z" fill="#fff" fill-opacity=".08"/>
</svg>
