<svg xmlns="http://www.w3.org/2000/svg" xmlns:xlink="http://www.w3.org/1999/xlink" viewBox="0 0 1500 1500">
  <defs>
    <style>
      .st0{fill:#52aa52}.st1{fill:url(#grad_red)}.st2{fill:url(#grad_green_short)}.st3{fill:#5fb268}.st4{fill:url(#grad_long)}.st5{fill:url(#grad_med)}.st6{fill:url(#grad_grey)}.st7{fill:url(#grad_green_main)}
    </style>
    <linearGradient id="grad_red" x1="1640.1" y1="1352.6" x2="1946.7" y2="1470.1" gradientTransform="translate(-962.1 -853)" gradientUnits="userSpaceOnUse">
      <stop offset="0" stop-color="#ee6f7f"/><stop offset=".5" stop-color="#ec4c66"/><stop offset="1" stop-color="#ed3c56"/>
    </linearGradient>
    <linearGradient id="grad_grey" x1="1617.8" y1="1543" x2="1962.1" y2="1572.4" gradientTransform="translate(-962.1 -853)" gradientUnits="userSpaceOnUse">
      <stop offset="0" stop-color="#a7a4a0"/><stop offset=".5" stop-color="#dbcbcc"/><stop offset="1" stop-color="#e2d2d1"/>
    </linearGradient>
    <linearGradient id="grad_green_main" x1="780.4" y1="890.2" x2="953.8" y2="890.2" gradientUnits="userSpaceOnUse">
      <stop offset="0" stop-color="#61d162"/><stop offset=".5" stop-color="#64d767"/><stop offset="1" stop-color="#5ab95f"/>
    </linearGradient>
    <linearGradient id="grad_long" x1="565.4" y1="502.7" x2="695.4" y2="1021.1" gradientUnits="userSpaceOnUse">
      <stop offset="0" stop-color="#ee526c"/><stop offset=".3" stop-color="#ed3c55"/><stop offset=".6" stop-color="#ac9767"/><stop offset="1" stop-color="#5db05e"/>
    </linearGradient>
    <linearGradient id="grad_med" x1="873.4" y1="794.6" x2="1002.7" y2="887.3" gradientUnits="userSpaceOnUse">
      <stop offset="0" stop-color="#ed3c55"/><stop offset=".6" stop-color="#ac9767"/><stop offset="1" stop-color="#5db05e"/>
    </linearGradient>
    <linearGradient id="grad_green_short" x1="410.7" y1="1011.6" x2="581.9" y2="1026.3" xlink:href="#grad_green_main"/>
  </defs>
  <path class="st1" d="M1008.7 411.8v168.1c-53-24.7-85.8-14.8-140.2-3.5-83.1 17.3-191.5 44.3-222.9 131.2-6-84.6-16.4-188.4 57.8-249.1 57.9-18 211.5-64.4 265.5-68.1 17.2-1.2 32.6 5.3 39.8 21.4z"/>
  <path class="st6" d="M1008.7 579.9c1 .5 5.1 131.2-3.2 133.9-6.1-13.7-33.6-31.6-48.2-37.4-2-.8-3.6-2.3-6.4-3.1-63-18-178.8 14.2-232.3 50.4-40.5 27.4-61.5 60.1-76.1 105.3v-18.7c0-30.1 0-60.2 0-90.3.6-2.8 2.4-10.2 3.2-12.5 31.4-86.9 139.8-113.9 222.9-131.2 54.4-11.3 87.2-21.2 140.2 3.5z"/>
  <path class="st7" d="M905.9 1000.2c-140.4 53.1-174.1-108.7-43.9-178 30.4-16.2 69.2-17.4 85.7-52.4 13 77.1 8.2 165.6-41.8 230.4z"/>
  <path class="st4" d="M703.5 458.5c-63.8 19.9-105.2 41.3-115.7 112.1-11.3 76.1-2.5 178.5-3.2 258.4 0 8.3 0 16.6 0 24.9-.3 28.3.7 56.8.1 85.1 0 1.7 0 3.5-.1 5.2-.8 28.3 2 56.6-4.2 84.7l-17.5 53-.8 2.5c50.3-32.7 73.5-86.1 77.1-143.2 5.9-34.6 3.2-70.9 3.2-105.8 0-2.1 0-4.2 0-6.2v-109c.6-2.8 2.4-10.2 3.2-12.5-6-84.6-16.4-188.4 57.8-249.1z"/>
  <path class="st5" d="M1005.5 713.7c-6.1-13.7-33.6-31.6-48.2-37.4-2-.8-3.6-2.3-6.4-3.1v84.1c-.9 3.7-1.8 9.4-3.2 12.5 13 77.1 8.2 165.6-41.8 230.4 60.4-22.8 97.5-87.1 102.9-147.8 1.8-20.1 2.6-125.3-3.3-138.6z"/>
  <path class="st3" d="M584.6 944.1c0-1.7 0-3.5.1-5.2h0c0 1.7 0 3.5-.1 5.2z"/>
  <path class="st0" d="M584.6 853.8c-22 53.3-73.1 53.4-115.7 84.1 0 0 .1 0 .2 0 38.8 1.8 80.3-19.4 115.5 6.2 0-1.7 0-3.5.1-5.2.6-28.3-.4-56.8-.1-85.1z"/>
  <path class="st2" d="M469.1 937.9c-2.5 1.3-5 2.8-7.5 4.4-98.8 66.3-47.9 203.4 72.2 158.8 11.8-4.2 21.4-10.9 29.1-19.3l17.5-53c6.1-28 3.4-56.4 4.2-84.7-35.2-25.6-76.7-4.4-115.5-6.2z"/>
</svg>
