<svg xmlns="http://www.w3.org/2000/svg" xmlns:xlink="http://www.w3.org/1999/xlink" viewBox="0 0 1500 1500">
  <defs>
    <style>
      .st0{fill:#52aa52}.st1{fill:url(#grad_red)}.st2{fill:url(#grad_green_short)}.st3{fill:#5fb268}.st4{fill:url(#grad_long)}.st5{fill:url(#grad_med)}.st6{fill:url(#grad_grey)}.st7{fill:url(#grad_green_main)}
    </style>
    <linearGradient id="grad_red" x1="1640.1" y1="1352.6" x2="1946.7" y2="1470.1" gradientTransform="translate(-962.1 -853)" gradientUnits="userSpaceOnUse">
      <stop offset="0" stop-color="#ee6f7f"/><stop offset=".5" stop-color="#ec4c66"/><stop offset="1" stop-color="#ed3c56"/>
    </linearGradient>
    <linearGradient id="grad_grey" x1="1617.8" y1="1543" x2="1962.1" y2="1572.4" gradientTransform="translate(-962.1 -853)" gradientUnits="userSpaceOnUse">
      <stop offset="0" stop-color="#a7a4a0"/><stop offset=".5" stop-color="#dbcbcc"/><stop offset="1" stop-color="#e2d2d1"/>
    </linearGradient>
    <linearGradient id="grad_green_main" x1="780.4" y1="890.2" x2="953.8" y2="890.2" gradientUnits="userSpaceOnUse">
      <stop offset="0" stop-color="#61d162"/><stop offset=".5" stop-color="#64d767"/><stop offset="1" stop-color="#5ab95f"/>
    </linearGradient>
    <linearGradient id="grad_long" x1="565.4" y1="502.7" x2="695.4" y2="1021.1" gradientUnits="userSpaceOnUse">
      <stop offset="0" stop-color="#ee526c"/><stop offset=".3" stop-color="#ed3c55"/><stop offset=".6" stop-color="#ac9767"/><stop offset="1" stop-color="#5db05e"/>
    </linearGradient>
    <linearGradient id="grad_med" x1="873.4" y1="794.6" x2="1002.7" y2="887.3" gradientUnits="userSpaceOnUse">
      <stop offset="0" stop-color="#ed3c55"/><stop offset=".6" stop-color="#ac9767"/><stop offset="1" stop-color="#5db05e"/>
    </linearGradient>
    <linearGradient id="grad_green_short" x1="410.7" y1="1011.6" x2="581.9" y2="1026.3" xlink:href="#grad_green_main"/>
  </defs>
  <path class="st1" d="M1008.7 411.8v168.1c-53-24.7-85.8-14.8-140.2-3.5-83.1 17.3-191.5 44.3-222.9 131.2-6-84.6-16.4-188.4 57.8-249.1 57.9-18 211.5-64.4 265.5-68.1 17.2-1.2 32.6 5.3 39.8 21.4z"/>
  <path class="st6" d="M1008.7 579.9c1 .5 5.1 131.2-3.2 133.9-6.1-13.7-33.6-31.6-48.2-37.4-2-.8-3.6-2.3-6.4-3.1-63-18-178.8 14.2-232.3 50.4-40.5 27.4-61.5 60.1-76.1 105.3v-18.7c0-30.1 0-60.2 0-90.3.6-2.8 2.4-10.2 3.2-12.5 31.4-86.9 139.8-113.9 222.9-131.2 54.4-11.3 87.2-21.2 140.2 3.5z"/>
  <path class="st7" d="M905.9 1000.2c-140.4 53.1-174.1-108.7-43.9-178 30.4-16.2 69.2-17.4 85.7-52.4 13 77.1 8.2 165.6-41.8 230.4z"/>
  <path class="st4" d="M703.5 458.5c-63.8 19.9-105.2 41.3-115.7 112.1-11.3 76.1-2.5 178.5-3.2 258.4 0 8.3 0 16.6 0 24.9-.3 28.3.7 56.8.1 85.1 0 1.7 0 3.5-.1 5.2-.8 28.3 2 56.6-4.2 84.7l-17.5 53-.8 2.5c50.3-32.7 73.5-86.1 77.1-143.2 5.9-34.6 3.2-70.9 3.2-105.8 0-2.1 0-4.2 0-6.2v-109c.6-2.8 2.4-10.2 3.2-12.5-6-84.6-16.4-188.4 57.8-249.1z"/>
  <path class="st5" d="M1005.5 713.7c-6.1-13.7-33.6-31.6-48.2-37.4-2-.8-3.6-2.3-6.4-3.1v84.1c-.9 3.7-1.8 9.4-3.2 12.5 13 77.1 8.2 165.6-41.8 230.4 60.4-22.8 97.5-87.1 102.9-147.8 1.8-20.1 2.6-125.3-3.3-138.6z"/>
  <path class="st3" d="M584.6 944.1c0-1.7 0-3.5.1-5.2h0c0 1.7 0 3.5-.1 5.2z"/>
  <path class="st0" d="M584.6 853.8c-22 53.3-73.1 53.4-115.7 84.1 0 0 .1 0 .2 0 38.8 1.8 80.3-19.4 115.5 6.2 0-1.7 0-3.5.1-5.2.6-28.3-.4-56.8-.1-85.1z"/>
  <path class="st2" d="M469.1 937.9c-2.5 1.3-5 2.8-7.5 4.4-98.8 66.3-47.9 203.4 72.2 158.8 11.8-4.2 21.4-10.9 29.1-19.3l17.5-53c6.1-28 3.4-56.4 4.2-84.7-35.2-25.6-76.7-4.4-115.5-6.2z"/>
</svg>
    <path fill="#4c9c5f" d="M809.1,1170c-50.9-1.8-112.4-30.8-151.9-62-2.2-2.3-1.3-3.1,1.6-1.6,42.7,33.3,97.2,54.1,150.2,63.7Z"/>
    <path fill="#76bf69" d="M747.1,582.4c.8.5.7,1,0,1.6-19.8-10-38.9-20.4-59.1-29.9-2.4-1.1-5.5-.4-4.6-4.3,23.1,8.7,42.7,20,63.7,32.6Z"/>
    <path fill="#157660" d="M265.4,747.2c-.2.8-2.6,2.3-3.3,3.3.4-3.5.4-7.1,3.3-9.8-.3,2,.5,4.8,0,6.5Z"/>
    <path fill="#d36e66" d="M850,623.2c-4.1,1.3-8.2,3.3-13.1,4.9l13.1-4.9Z M882.6,613.4c-5.8,1.5-12.3,3.1-18,4.9l18-4.9Z"/>
    <path fill="#90a15a" d="M752,585.6c-1.4-1.1-3.6-1-4.9-1.6v-1.6c2.1,1.2,3.5,2.4,4.9,3.3Z"/>
    <path fill="#b4b769" d="M779.7,650.9l-3.3,1.6c1.1-.6,2.2-1.1,3.3-1.6Z"/>
    <path fill="#93d4ae" d="M781.4,766.8c1.5-.9,3-2.2,4.9-3.3l-4.9,3.3Z"/>
    <polygon fill="#76bf69" points="632.8 884.4 632.8 882.7 634.4 883.5 632.8 884.4"/>
    <path fill="#36a97c" d="M712.8,815.8c.9-.8,1.7-2,3.3-3.3l-3.3,3.3Z"/>
    <path fill="#76bf69" d="M647.5,935c.6-.5,1.1-1.1,1.6-1.6l-1.6,1.6Z"/>
    <path fill="#36a97c" d="M721,809.3c.5-.4,1-1.1,1.6-1.6l-1.6,1.6Z"/>
    <path fill="#76cba1" d="M685,783.1h1.6c-.7.5-.7,1.1-1.6,0Z M766.7,776.6l1.6-1.6-1.6,1.6Z"/>
    <path fill="#93d4ae" d="M737.3,753.8h1.6c-.7.5-.7,1.1-1.6,0Z"/>
    <path fill="#157660" d="M686.7,716.2c.6-.5,1-1.2,1.6-1.6l-1.6,1.6Z"/>
    <path fill="#d0a653" d="M776.5,879.5l1.6-1.6c-.5.6-1.2,1-1.6,1.6Z"/>
    <path fill="#cbd677" d="M735.7,838.6c.5-.6,1.1-1.1,1.6-1.6l-1.6,1.6Z"/>
    <path fill="url(#g2)" d="M270.5,720.6v.2c0,0,0-.1,0-.2h0Z"/>
    <path fill="url(#g3)" d="M260.5,760.9c1.6-8.3,3.7-16.3,5.7-24.5.6-2.9,1.4-5.8,2.2-8.6l-8.3,27.3-.3,9.9c.2-1.3.5-2.7.7-4Z"/>
    <path fill="url(#g4)" d="M824.1,757c-9.2,5.3-17.2,11.3-24.7,18.5-5.7,5.2-12.2,10.2-17.6,15.9-6.5,7.1-13.4,14.1-20.2,21-4.5,4.7-8.8,9.9-13.7,14.7-4.9,4.7-9.9,9.3-14.4,14.4-24.7,29.4-50.1,57.5-76.6,85.1-7,7.4-12.1,15.2-19.7,22.2-41.8,35.2-98.8,62.4-153,64.8-69.2,4.8-136.5-24.5-184.4-74.8-5.9-5.5-34.6-34.4-40-44.2-1-1-1.9-2-2.8-3,15,71.4,55.7,137.1,119.3,177.4,11.7,7.7,22.8,15.2,34.8,22.3,13.9,8.3,28.4,15.3,43.3,21.7,108.6,46.8,229.1,73.8,347.6,61.7,3.8-.3,25.3-2.4,13.8-4.3-51.2-4.8-99.7-25.9-142.6-53.6-8.9-5.7-15.1-12.5-22.9-20.2-6.7-6.3-13.4-13.1-19.6-19.9-7.1-7.5-8.4-12.9,1-19.7,16.1-12.2,31.3-25.7,45.4-40.4,9-10.2,17.8-20.5,27-30.6,23.8-27.5,44.1-60.5,65.3-90.7.9-1.4,1.8-2.9,2.7-4.3-.6-1.1-1.1-2.2-1.4-3.4-1.4-4.9,0-10.2,3.8-15.8,23.1-31.7,59.4-57.5,108.1-76.6h.3c5.8-2.4,11.8-4.8,16.4-8.7,4.9-3.9,8.9-12.4,9.4-17.6.6-7,1.3-21,2.2-39.4-.3,0-.7-.1-1.1-.2-30.7.4-59.8,11.5-86.1,27.5Z"/>
    <path fill="url(#g5)" d="M826.6,639.3c-2.5-2.5-4.3-5.6-1.2-7.9-.2-.1-.4-.2-.4-.2-7.4-2.8-83.1,39.1-87.3,41-7,3.2-132.4,110.2-133.4,112.6-1.3,2.3-27.8,25-37.9,34.3-2.9,2.4-6,4.3-8.3,6.8-2.5,2.6,4.1,2.1,7,2,10.8-.8,21.8-2.3,32.7-2.8,4.2-.2,8.5-.6,12.5-1.9,5.1-1.5,9.7-4.3,14.3-7,18.1-10.2,39.2-18.5,57.1-29.9,16.9-10.3,34.5-20.6,52.2-29.8,14.4-7.6,26.9-14.9,42.1-21.5,24.8-10.8,50.5-21.3,74.2-24.9,13.6-2.1,27.3-4.2,40.8-6.9,4.7-1,15.8-2.5,18.5-6.9-29.6-15.8-58.7-34.7-82.9-57.2Z"/>
    <path fill="#fff" d="M694.6,689.9c4.6.4,8.9,1.7,11.2,4.1,1.6,0,3.2-.1,4.8-.3,14.6-12.1,25.3-20.7,27.2-21.6.4-.2,1.4-.7,2.8-1.5,0,0,0,0,0,0-.4.2-.8.4-1.1.6-3.5-.2-6.9-1-10.4-2-77.7-29.4-162-30.6-242.3-10.9-20.8,5-98.6,28.8-104.6,45.4-7,15.7,5.5,37.4,21.4,40.4,10.8,1.9,20.7-6.1,30.1-10.4,79.3-39.2,172.7-55.1,260.9-43.9Z"/>
    <path fill="#fff" d="M599.8,782.2c3.3-.5,6.2-1,9-1.8,6.5-5.9,19.5-17.1,34.8-30.2h0s0,0,0,0c-.2-.4-.4-.7-.8-1-5.6,1.3-11.5,1.5-17.3,1-64.3-4.7-126.2,10.9-182.7,40.8-10.3,5.7-29,17.1-23.9,30.7,3.2,7,12.9,7.7,19.7,5.7,10.7-2.6,21.1-6.6,31.3-11.8,3.8-2,7.9-3.6,12-4.7,5.7-1.3,10.5-4.1,16-6.4,5-2.1,10.3-3.1,15.5-5.1,7-2.7,14.3-5.2,21.5-7,5-1.2,9.9-1.9,14.9-2.6,4.7-1.3,9.5-2.4,14.4-3.1,11.7-1.7,24-2.7,35.5-4.4Z"/>
    <path fill="#fff" d="M564.3,827.8c.3,0,.5,0,.8,0-.2,0-.5,0-.8,0Z M608.2,823.8c0,0,.2,0,.2,0,0,0-.2,0-.2,0Z M610.3,823.2s0,0,0,0h0s0,0,0,0Z M606.4,824.1c-2.8.5-5.7.8-8.5.9-9.3.4-18.7,1.5-28,2.4,0,0,0,0,0,0-38.4,6.9-76.4,19.9-109.5,40-6.2,4.2-13.6,9.3-17.6,15.2-7.6,11.9,2,15,11.9,11.9,6.4-1.4,10.7-5.4,16.6-8.3,3.3-1.4,6.5-3,9.5-4.9,1.9-1.2,3.8-2.5,5.7-3.7,1.2-.8,2.6-1.5,4.1-2.1,1.8-.8,3.7-1.7,5.5-2.6,4-2.3,8.2-4.8,12.9-6.6,15.3-6.2,31.2-10.8,46.8-15.8,10.1-3.7,20.1-7.5,30.2-11.3,1.8-.8,3.7-1.7,5.5-2.6,4.2-2.4,7.3-5.8,11.6-8.1,1.6-1.1,4.5-2.1,4.4-3.4h0c0-.5-.4-.8-1.1-1Z"/>
    <path fill="url(#g8)" d="M799.4,775.5c7.4-7.2,15.5-13.2,24.7-18.5,26.6-16.2,56.1-27.4,87.2-27.5.4-9.8.9-20.8,1.4-32.8-1.1.1-2.3.2-3.4.4-3.2,4-13.7,5.4-18.2,6.4-13.6,2.6-27.2,4.8-40.8,6.9-23.7,3.6-49.4,14.1-74.2,24.9-15.2,6.6-27.7,13.8-42.1,21.5-17.7,9.2-35.2,19.5-52.2,29.8-17.9,11.4-39,19.7-57.1,29.9-4.6,2.7-9.2,5.5-14.3,7-1.3.4-2.6.7-3.9,1,.7.2,1,.6,1.1,1h0c.1,1.3-2.8,2.3-4.4,3.4-4.3,2.3-7.4,5.7-11.6,8.1-25.6,12.7-55.1,18.5-82.4,29.7-4.7,1.8-8.9,4.3-12.9,6.6-2.1,1.2-4.4,2.2-6.6,3.2-3.2,1.3-5.9,3.4-8.7,5.2-3.1,1.8-6.3,3.4-9.5,4.9-5.9,2.9-10.2,6.9-16.6,8.3-9.9,3.1-19.5,0-11.9-11.9,4-5.9,11.4-10.9,17.6-15.2,33.1-20.1,71.1-33.2,109.5-40-1.6.1-3.2.3-4.8.4-2.9,0-9.5.6-7-2,2.3-2.4,5.3-4.3,8.3-6.8,10.1-9.2,36.6-31.9,37.9-34.3,0-.1.5-.6,1.3-1.4-1.2-.6-3.2-.7-6.3-.4-13.7,1.2-28,3-41.4,5.6-7.9,1.5-15.2,2-22.9,3.9-7.3,1.8-14.5,4.3-21.5,7-5.1,2-10.5,2.9-15.5,5.1-5.5,2.4-10.3,5.1-16,6.4-4.1,1.1-8.1,2.7-12,4.7-10.2,5.2-20.7,9.1-31.3,11.8-6.8,2-16.5,1.3-19.7-5.7-5.1-13.6,13.5-25.1,23.9-30.7,56.5-29.9,118.5-45.5,182.7-40.8,6.9.6,13.9.2,20.4-1.8,19.8-16.9,43-36.6,61.2-51.7-1-4-6.6-6.1-12.5-6.6-88.2-11.2-181.6,4.7-260.9,43.9-9.4,4.3-19.4,12.3-30.1,10.4-15.9-3-28.4-24.7-21.4-40.4,5.9-16.7,83.7-40.5,104.6-45.4,80.3-19.7,164.7-18.5,242.3,10.9,3.5,1,6.9,1.8,10.4,2,9.7-5.1,54.9-29.8,75.7-37.8-.1-1.2-.7-2.5-1.8-4-15.2-15.8-34.6-27.1-53-38.9-8.4-5.1-17.3-9.2-25.8-14.1-18.4-10.2-36.5-20.7-56-28.7-66.9-24.9-141.4-28.9-210.6-11.6-68.6,19.8-130.6,64.1-167.9,125.5-14.7,22.9-28,47.7-33.9,74.6-2,8.2-4.2,16.2-5.7,24.5-7.6,43.1-12.9,89.8-1.1,132.3,3,8.2,34.4,39.8,40.6,45.6,47.9,50.3,115.1,79.5,184.4,74.8,54.2-2.4,111.2-29.6,153-64.8,7.6-7,12.7-14.9,19.7-22.2,26.4-27.6,51.9-55.7,76.6-85.1,4.5-5.1,9.5-9.7,14.4-14.4,4.9-4.8,9.2-9.9,13.7-14.7,6.8-6.9,13.6-13.9,20.2-21,5.4-5.6,11.9-10.7,17.6-15.9Z"/>
    <path fill="url(#g9)" d="M1187.3,627.6c0-3.8,0-7.6,0-11.5-.3.1-.6.2-1,.3l-.4,12.2c.5-.4.9-.7,1.4-1Z"/>
    <path fill="url(#g10)" d="M914.3,699.1s0,0,0,0c1.1-28.2,2.4-61.9,3.8-96.6l-20.9,6h0c-4.6,1.3-8.7,2.6-11.5,3.2-11.6,3.2-23.9,6.3-35.3,10.3-5.6,2-11.4,4.1-17.1,6-2.4.8-5.4,1.7-7.4,2.9-4,2.3-2.2,5.7.5,8.4,25.5,23.7,56.5,43.5,87.7,59.8Z"/>
    <path fill="url(#g11)" d="M1186.8,535.9c-24.7,88.4-106.8,94.5-207.1,74.6,0,12.3,0,24.9,0,37.6,0,11.1,0,22.2,0,33.4,12.4-2.3,27.2-4.1,44.9-4.9,77.6-27.4,135.4-51.4,161.6-60.1l.4-11.7.5-14.6c0-18.5-.2-37-.5-54.2Z"/>
    <path fill="url(#g12)" d="M1024.7,814.9h0c0-.4.1-.8.2-1.1,0-.1,0-.1,0,0,0,.4-.2,1.1-.1,1Z"/>
    <path fill="url(#g13)" d="M1110.4,909.9c-26,.1-42.1-8.4-62.8-24.3-23.4-15.8-33.3-45.8-25-76.6,8.2-38,36.1-58,58.1-68.2,27.1-12.5,60.8-17.1,92.3-12.6.9,0,1.9,0,2.9.1,2.8.1,6.5.4,7.8-.8.2-.2.4-.5.5-1.2.5-9.7.9-35.6,1.1-67.7-.3-.3-.6-.5-.9-.8h0c-2.1-1.4-5.2-.4-8.6,2-49,45.8-105.8,82-170.8,100.9-7.3,2.4-17.5,4.5-22.2,10.2-.5.6-1,1.4-1.3,2.3-.1,17-.3,33.3-.5,48.6.1,15.5-4.2,28.7-14.4,44.2-21.3,36.1-66.6,51.9-110.4,51.9-4.6,0-9.2-.2-13.7-.5,37.7,8.6,78.6,13.3,121.3,13.3s106-7.6,151.7-21.2c-1.7.1-3.4.2-5.1.3Z"/>
    <path fill="url(#g14)" d="M1251,361.1c-.5-18.4-4.4-29.8-12.2-35.9-6.8-5.2-16.4-6.3-29.3-3.2-19.7,5.1-40,10.8-59.6,16.4-16.3,4.6-33.2,9.4-50,13.9-49.8,13.3-100.1,26.3-138.5,36.2-17.4,5.3-33.2,11.8-36.4,32.1v.2c-3.5,51.9-7,140.7-10,219.1-2.3,60.6-4.4,112.9-5.8,129.1-.5,5.2-4.4,13.7-9.4,17.6-4.6,4-10.6,6.3-16.4,8.6h-.3c-48.6,19.3-85,45-108.1,76.8-3.9,5.6-5.2,10.9-3.8,15.8,1.6,5.7,6.8,10.6,15.4,14.4,11.7,5.6,22.3,9.5,32.2,11.8,11.9,2.6,24.6,4,37.5,4,43.8,0,89.1-15.8,110.4-51.9,10.2-15.5,14.5-28.7,14.4-44.2.2-15.3.4-31.7.5-48.6.2-29.5.2-60.9.2-92.1,0-23.1,0-46.1-.1-68.2,0-32-.1-62.2,0-88.6-.6-16.6,10.8-19.6,25.1-23.5l1.8-.5c10.5-3,21-5.9,31.5-8.9,44.6-12.5,90.6-25.5,135.5-39,.9-.2,1.7-.4,2.4-.6,1.2-.3,2.9-.8,3.3-.7,0,0,0,0,0,0,3.1,12.7,4.2,93.8,4.2,165.4,0,14.5,0,28.7-.1,41.7-.2,32.2-.6,58-1.1,67.7,0,.7-.2,1-.5,1.2-1.3,1.2-5.1,1-7.8.8-1,0-2-.1-2.9-.1-31.5-4.5-65.2.1-92.3,12.6-22,10.2-49.9,30.2-58.1,68.2-8.2,30.7,1.6,60.8,25,76.6,20.7,15.9,36.8,24.4,62.8,24.3,53.6-2.4,99.6-25.5,123.1-62,11.3-18.1,16.7-42.2,16.2-71.8,0-13.7.3-30.9.4-49,.4-36.9.8-78.8.6-108.6h0c-.2-20.4,0-63.7.2-109.5.3-59.7.6-121.5,0-147.8Z"/>
    <path fill="url(#g15)" d="M1185.4,616.8c-26.6,9-84,32.8-160.7,59.8-16.8.8-31,2.5-43,4.6,0,31.2,0,62.6-.2,92.1.4-.9.8-1.7,1.3-2.3,4.7-5.7,14.9-7.9,22.2-10.2,65-18.9,121.8-55.1,170.8-100.9,3.4-2.4,6.5-3.4,8.6-2.1h0c.3.3.6.5.9.8,0-13.1.1-27.2.1-41.7Z"/>
  </g>
</svg>
