<svg xmlns="http://www.w3.org/2000/svg" xmlns:xlink="http://www.w3.org/1999/xlink" viewBox="0 0 1500 1500">
  <defs>
    <style>
      .st0{fill:#52aa52}.st1{fill:url(#grad_red_short)}.st2{fill:url(#grad_multi)}.st3{fill:url(#grad_red_main)}.st4{fill:url(#grad_green_short)}.st5{fill:#5fb268}.st6{fill:url(#grad_grey)}.st7{fill:url(#grad_green_main)}
    </style>
    <linearGradient id="grad_red_main" x1="1622.5" y1="1326.2" x2="1972.5" y2="1460.4" gradientTransform="translate(-956.4 -853)" gradientUnits="userSpaceOnUse">
      <stop offset="0" stop-color="#f0706d"/><stop offset=".5" stop-color="#ee4f55"/><stop offset="1" stop-color="#ed4246"/>
    </linearGradient>
    <linearGradient id="grad_grey" x1="1597" y1="1543.5" x2="1990" y2="1577.1" gradientTransform="translate(-956.4 -853)" gradientUnits="userSpaceOnUse">
      <stop offset="0" stop-color="#a7a4a0"/><stop offset=".5" stop-color="#dbcbcc"/><stop offset="1" stop-color="#e2d2d1"/>
    </linearGradient>
    <linearGradient id="grad_green_main" x1="783.9" y1="919.9" x2="981.8" y2="919.9" gradientUnits="userSpaceOnUse">
      <stop offset="0" stop-color="#61d162"/><stop offset=".5" stop-color="#64d767"/><stop offset="1" stop-color="#5ab95f"/>
    </linearGradient>
    <linearGradient id="grad_multi" x1="538.4" y1="477.5" x2="686.9" y2="1069.3" gradientUnits="userSpaceOnUse">
      <stop offset="0" stop-color="#ed4144"/><stop offset=".3" stop-color="#ef6a66"/><stop offset=".6" stop-color="#ac9767"/><stop offset="1" stop-color="#5db05e"/>
    </linearGradient>
    <linearGradient id="grad_red_short" x1="890" y1="810.7" x2="1037.7" y2="916.6" gradientUnits="userSpaceOnUse">
      <stop offset="0" stop-color="#ed474b"/><stop offset=".6" stop-color="#ac9767"/><stop offset="1" stop-color="#5db05e"/>
    </linearGradient>
    <linearGradient id="grad_green_short" x1="361.9" y1="1058.5" x2="557.3" y2="1075.2" xlink:href="#grad_green_main"/>
  </defs>
  <path class="st3" d="M1044.5 373.7v191.9c-60.5-28.2-97.9-16.9-160-4-94.8 19.7-218.6 50.6-254.4 149.7-6.8-96.6-18.7-215.1 66-284.3 66-20.6 241.4-73.5 303-77.8 19.6-1.4 37.2 6 45.4 24.5z"/>
  <path class="st6" d="M1044.5 565.6c1.2.5 5.9 149.7-3.7 152.8-6.9-15.6-38.4-36.1-55-42.6-2.2-.9-4.1-2.6-7.3-3.6-72-20.5-204.1 16.3-265.2 57.5-46.2 31.2-70.2 68.6-86.9 120.2v-21.3c0-34.3 0-68.8 0-103.1.7-3.2 2.8-11.7 3.7-14.2 35.8-99.2 159.6-130 254.4-149.7 62.1-12.9 99.5-24.2 160 4z"/>
  <path class="st7" d="M927.1 1045.4c-160.2 60.6-198.8-124.1-50.1-203.2 34.7-18.5 79-19.9 97.8-59.8 14.8 88 9.4 189.1-47.7 263z"/>
  <path class="st2" d="M696 427.1c-72.8 22.7-120.1 47.2-132 127.9-12.9 86.9-2.8 203.7-3.7 295 0 9.5.1 19 0 28.4-.3 32.3.8 64.8.1 97.1 0 2 0 4-.1 6-.9 32.3 2.2 64.7-4.8 96.7l-20 60.5-.9 2.8c57.4-37.4 83.9-98.3 88-163.5 6.8-39.5 3.7-80.9 3.7-120.8 0-2.4 0-4.7 0-7.1v-124.4c.7-3.2 2.8-11.7 3.7-14.2-6.8-96.6-18.7-215.1 66-284.3z"/>
  <path class="st1" d="M1040.8 718.5c-6.9-15.6-38.3-36.1-55-42.6-2.2-.9-4.1-2.6-7.3-3.6v96c-1 4.2-2 10.7-3.7 14.2 14.8 88 9.4 189.1-47.7 263 68.9-26.1 111.3-99.4 117.5-168.7 2-23 3-143-3.8-158.3z"/>
  <path class="st5" d="M560.3 981.4c0-2 0-4 .1-6h0c0 2 0 4-.1 6z"/>
  <path class="st0" d="M560.3 878.4c-25.2 60.9-83.5 60.9-132 96 0 0 .2 0 .2 0 44.3 2.1 91.7-22.2 131.8 7.1 0-2 0-4 .1-6 .7-32.3-.5-64.8-.1-97.1z"/>
  <path class="st4" d="M428.5 974.3c-2.9 1.5-5.7 3.2-8.6 5-112.7 75.7-54.7 232.2 82.4 181.3 13.5-4.7 24.4-12.5 33.2-22l20-60.5c7-32 3.8-64.4 4.8-96.7-40.1-29.3-87.5-5-131.8-7.1z"/>
</svg>
